<svg xmlns="http://www.w3.org/2000/svg" width="295" height="73">
	<g class="symbol">
		<path class="c" fill="#444444" d="M61.715 50.669H35.627c-8.089 0-14.67-6.582-14.67-14.67 0-8.089 6.581-14.669 14.67-14.669h26.088A50.252 50.252 0 0174.331.373H35.627C15.982.373 0 16.355 0 35.999c0 19.645 15.982 35.627 35.627 35.627h38.704a50.264 50.264 0 01-12.616-20.957"/>
		<path class="o" fill="#444444" d="M145.833 35.999c0 19.883-16.118 36.001-36.001 36.001-19.882 0-36-16.118-36-36.001C73.832 16.117 89.95 0 109.832 0c19.883 0 36.001 16.117 36.001 35.999"/>
	</g>
	<g class="name">
		<path class="ort" fill="#222222" d="M233.64 42.963h8.931v21.836h3.359V42.963h7.899v-3.359H233.64v3.359m-19.092 6.314c0 1.775-.606 3.244-1.852 4.489-1.247 1.247-2.707 1.854-4.462 1.854h-5.613V42.963h5.613c1.757 0 3.216.606 4.462 1.852 1.246 1.245 1.852 2.704 1.852 4.462zm3.357 0c0-2.653-.954-4.954-2.836-6.837-1.882-1.882-4.181-2.836-6.835-2.836h-8.973v25.195h3.36v-5.822h5.613c.85 0 1.675-.101 2.461-.3l3.119 6.122h3.763l-3.838-7.524a10.86 10.86 0 001.344-1.15c1.873-1.87 2.822-4.174 2.822-6.848zm-35.384 2.91c0 2.794-.954 5.106-2.917 7.069-1.933 1.934-4.301 2.914-7.038 2.914-2.756 0-5.133-.98-7.067-2.914-1.961-1.962-2.914-4.274-2.914-7.069 0-2.774.953-5.076 2.914-7.038 1.933-1.934 4.311-2.914 7.067-2.914 2.777 0 5.078.953 7.038 2.914 1.936 1.935 2.917 4.304 2.917 7.038zm-9.955-13.31c-3.677 0-6.853 1.312-9.44 3.899-2.587 2.588-3.899 5.754-3.899 9.411 0 3.679 1.312 6.855 3.899 9.442 2.588 2.587 5.764 3.899 9.44 3.899 3.657 0 6.824-1.312 9.414-3.899 2.587-2.588 3.899-5.764 3.899-9.442 0-3.656-1.312-6.822-3.899-9.411-2.589-2.587-5.756-3.899-9.414-3.899z"/>
		<path class="chad" fill="#222222" d="M290.249 19.781c0 2.579-.883 4.719-2.697 6.545-1.814 1.823-3.949 2.71-6.528 2.71h-7.043V10.557h7.043c2.579 0 4.715.886 6.528 2.709 1.79 1.799 2.697 3.991 2.697 6.515zm-.323-8.887c-2.443-2.453-5.438-3.696-8.902-3.696h-10.4v25.195h10.4c3.466 0 6.461-1.243 8.902-3.695 2.442-2.45 3.68-5.45 3.68-8.917 0-3.446-1.238-6.436-3.68-8.887zm-39.611 14.503h-12.189l6.096-13.024 6.093 13.024zm-7.4-18.199l-11.756 25.195h3.712l1.69-3.639h15.32l1.69 3.639h3.743L245.526 7.198h-2.611zm-28.368 10.92h-14.112V7.198h-3.357v25.195h3.357V21.475h14.112v10.918h3.358V7.198h-3.358v10.92m-41.981 15.004c3.658 0 6.825-1.312 9.425-3.91l.607-.601-2.1-1.872-.502-.281-.392.392c-1.933 1.934-4.301 2.914-7.038 2.914-2.756 0-5.133-.98-7.067-2.914-1.961-1.962-2.914-4.274-2.914-7.069 0-2.775.953-5.076 2.914-7.038 1.934-1.934 4.311-2.914 7.067-2.914 2.737 0 5.105.98 7.038 2.914l.648.634 1.981-1.908.366-.483-.619-.616c-2.589-2.587-5.756-3.899-9.414-3.899-3.677 0-6.853 1.312-9.44 3.899-2.587 2.587-3.899 5.753-3.899 9.411 0 3.678 1.312 6.855 3.899 9.442 2.587 2.587 5.763 3.899 9.44 3.899"/>
	</g>
</svg>
